<svg preserveAspectRatio="none" width="100%" height="100%" overflow="visible" style="display: block;" viewBox="0 0 24 24" fill="none" xmlns="http://www.w3.org/2000/svg">
<g id="Menu icon">
<path id="Vector" d="M20 21C20 18.8783 19.1571 16.8434 17.6569 15.3431C16.1566 13.8429 14.1217 13 12 13C9.87827 13 7.84344 13.8429 6.34315 15.3431C4.84285 16.8434 4 18.8783 4 21" stroke="var(--stroke-0, #9EABC9)" stroke-opacity="0.92" stroke-width="2" stroke-linecap="round" stroke-linejoin="round"/>
<path id="Vector_2" d="M12 13C13.3261 13 14.5979 12.4732 15.5355 11.5355C16.4732 10.5979 17 9.32608 17 8C17 6.67392 16.4732 5.40215 15.5355 4.46447C14.5979 3.52678 13.3261 3 12 3C10.6739 3 9.40215 3.52678 8.46447 4.46447C7.52678 5.40215 7 6.67392 7 8C7 9.32608 7.52678 10.5979 8.46447 11.5355C9.40215 12.4732 10.6739 13 12 13Z" stroke="var(--stroke-0, #9EABC9)" stroke-opacity="0.92" stroke-width="2" stroke-linecap="round" stroke-linejoin="round"/>
</g>
</svg>
