<svg preserveAspectRatio="none" width="100%" height="100%" overflow="visible" style="display: block;" viewBox="0 0 24 24" fill="none" xmlns="http://www.w3.org/2000/svg">
<g id="Menu icon" clip-path="url(#clip0_0_20)">
<path id="Vector" d="M12 15.5C12.4596 15.5 12.9148 15.4095 13.3394 15.2336C13.764 15.0577 14.1499 14.7999 14.4749 14.4749C14.7999 14.1499 15.0577 13.764 15.2336 13.3394C15.4095 12.9148 15.5 12.4596 15.5 12C15.5 11.5404 15.4095 11.0852 15.2336 10.6606C15.0577 10.236 14.7999 9.85013 14.4749 9.52513C14.1499 9.20012 13.764 8.94231 13.3394 8.76642C12.9148 8.59053 12.4596 8.5 12 8.5C11.0717 8.5 10.1815 8.86875 9.52513 9.52513C8.86875 10.1815 8.5 11.0717 8.5 12C8.5 12.9283 8.86875 13.8185 9.52513 14.4749C10.1815 15.1313 11.0717 15.5 12 15.5Z" stroke="var(--stroke-0, white)" stroke-width="2" stroke-linecap="round" stroke-linejoin="round"/>
<path id="Vector_2" d="M19.4 15C19.256 15.3284 19.2133 15.6922 19.2774 16.045C19.3416 16.3978 19.5096 16.7234 19.76 16.98L19.8 17.02C20.1938 17.4138 20.4151 17.948 20.4151 18.505C20.4151 19.062 20.1938 19.5962 19.8 19.99C19.4062 20.3838 18.872 20.6051 18.315 20.6051C17.758 20.6051 17.2238 20.3838 16.83 19.99L16.79 19.95C16.5334 19.6996 16.2078 19.5316 15.855 19.4674C15.5022 19.4033 15.1384 19.446 14.81 19.59C14.4852 19.7271 14.2078 19.9565 14.0123 20.2499C13.8167 20.5432 13.7116 20.8875 13.71 21.24V21.4C13.71 21.957 13.4888 22.4911 13.0949 22.8849C12.7011 23.2788 12.167 23.5 11.61 23.5C11.053 23.5 10.5189 23.2788 10.1251 22.8849C9.73125 22.4911 9.51 21.957 9.51 21.4V21.24C9.50837 20.8875 9.40326 20.5432 9.20771 20.2499C9.01216 19.9565 8.73478 19.7271 8.41 19.59C8.08164 19.446 7.71776 19.4033 7.36499 19.4674C7.01222 19.5316 6.68665 19.6996 6.43 19.95L6.39 19.99C5.99615 20.3838 5.46198 20.6051 4.905 20.6051C4.34802 20.6051 3.81385 20.3838 3.42 19.99C3.02615 19.5962 2.80489 19.062 2.80489 18.505C2.80489 17.948 3.02615 17.4138 3.42 17.02L3.46 16.98C3.84981 16.8329 4.17652 16.5551 4.38441 16.1941C4.5923 15.833 4.6685 15.411 4.6 15C4.46291 14.6752 4.23346 14.3978 3.94014 14.2023C3.64682 14.0067 3.30253 13.9016 2.95 13.9H2.8C2.24305 13.9 1.7089 13.6788 1.31508 13.2849C0.921249 12.8911 0.7 12.357 0.7 11.8C0.7 11.243 0.921249 10.7089 1.31508 10.3151C1.7089 9.92125 2.24305 9.7 2.8 9.7H2.96C3.39239 9.662 3.79649 9.46903 4.09786 9.15664C4.39922 8.84425 4.57755 8.43348 4.6 8C4.74402 7.67164 4.7867 7.30776 4.72256 6.95499C4.65842 6.60222 4.49039 6.27665 4.24 6.02L4.2 5.98C3.80615 5.58615 3.58489 5.05198 3.58489 4.495C3.58489 3.93802 3.80615 3.40385 4.2 3.01C4.59385 2.61615 5.12802 2.39489 5.685 2.39489C6.24198 2.39489 6.77615 2.61615 7.17 3.01L7.21 3.05C7.4686 3.30076 7.79649 3.46816 8.15126 3.53056C8.50603 3.59296 8.87136 3.54748 9.2 3.4C9.52478 3.26291 9.80216 3.03346 9.99771 2.74014C10.1933 2.44682 10.2984 2.10253 10.3 1.75V1.6C10.3 1.04305 10.5212 0.508902 10.9151 0.115076C11.3089 -0.278751 11.843 -0.5 12.4 -0.5C12.957 -0.5 13.4911 -0.278751 13.8849 0.115076C14.2788 0.508902 14.5 1.04305 14.5 1.6V1.76C14.5016 2.11253 14.6067 2.45682 14.8023 2.75014C14.9978 3.04346 15.2752 3.27291 15.6 3.41C15.9284 3.55402 16.2922 3.5967 16.645 3.53256C16.9978 3.46842 17.3234 3.30039 17.58 3.05L17.62 3.01C18.0138 2.61615 18.548 2.39489 19.105 2.39489C19.662 2.39489 20.1962 2.61615 20.59 3.01C20.9838 3.40385 21.2051 3.93802 21.2051 4.495C21.2051 5.05198 20.9838 5.58615 20.59 5.98L20.55 6.02C20.1583 6.16531 19.8294 6.44233 19.6196 6.80357C19.4098 7.16482 19.3321 7.58779 19.4 8C19.5371 8.32478 19.7665 8.60216 20.0599 8.79771C20.3532 8.99326 20.6975 9.09837 21.05 9.1H21.21C21.767 9.1 22.3011 9.32125 22.6949 9.71508C23.0887 10.1089 23.31 10.643 23.31 11.2C23.31 11.757 23.0887 12.2911 22.6949 12.6849C22.3011 13.0788 21.767 13.3 21.21 13.3H21.05C20.6158 13.3357 20.2093 13.5277 19.9059 13.8403C19.6025 14.1529 19.4227 14.5649 19.4 15Z" stroke="var(--stroke-0, white)" stroke-width="2" stroke-linecap="round" stroke-linejoin="round"/>
</g>
<defs>
<clipPath id="clip0_0_20">
<rect width="24" height="24" fill="white"/>
</clipPath>
</defs>
</svg>
