<svg preserveAspectRatio="none" width="100%" height="100%" overflow="visible" style="display: block;" viewBox="0 0 24 24" fill="none" xmlns="http://www.w3.org/2000/svg">
<g id="Menu icon">
<path id="Vector" d="M18 9C18 7.4087 17.3679 5.88258 16.2426 4.75736C15.1174 3.63214 13.5913 3 12 3C10.4087 3 8.88258 3.63214 7.75736 4.75736C6.63214 5.88258 6 7.4087 6 9C6 16 3 16 3 16H21C21 16 18 16 18 9Z" stroke="var(--stroke-0, #9EABC9)" stroke-opacity="0.92" stroke-width="2" stroke-linecap="round" stroke-linejoin="round"/>
<path id="Vector_2" d="M13.7 20C13.5206 20.2894 13.2703 20.5283 12.9728 20.6939C12.6754 20.8595 12.3405 20.9464 12 20.9464C11.6595 20.9464 11.3246 20.8595 11.0272 20.6939C10.7297 20.5283 10.4794 20.2894 10.3 20" stroke="var(--stroke-0, #9EABC9)" stroke-opacity="0.92" stroke-width="2" stroke-linecap="round" stroke-linejoin="round"/>
</g>
</svg>
