<svg preserveAspectRatio="none" width="100%" height="100%" overflow="visible" style="display: block;" viewBox="0 0 71.4165 83.6667" fill="none" xmlns="http://www.w3.org/2000/svg">
<g id="Icon">
<foreignObject x="-24" y="-24" width="119.417" height="131.667"><div xmlns="http://www.w3.org/1999/xhtml" style="backdrop-filter:blur(12px);clip-path:url(#bgblur_0_0_98_clip_path);height:100%;width:100%"></div></foreignObject><path id="Fill 1" data-figma-bg-blur-radius="24" d="M32.8506 0.963866C34.5604 0.354096 36.4622 0.347528 38.1973 0.93457L65.3008 10.0273H65.2998C68.5302 11.106 70.7252 14.0774 70.7432 17.4209L70.916 44.5371C70.9701 52.8815 67.928 60.9676 62.3564 67.3086H62.3555C59.9483 70.0472 56.9093 72.4135 53.1006 74.5312L52.3291 74.9512L37.7578 82.7334C37.2317 83.0175 36.6501 83.1624 36.0654 83.167H36.0615C35.48 83.167 34.895 83.0335 34.3643 82.7588L19.6592 75.1465C15.4455 72.9629 12.1301 70.5023 9.5332 67.6221C4.0506 61.546 0.922177 53.7977 0.686524 45.7217L0.672852 44.9395L0.500001 17.8437C0.478115 14.4959 2.63798 11.5033 5.84961 10.3779H5.85059L32.8506 0.963866Z" fill="var(--fill-0, #1EA51F)" fill-opacity="0.35" stroke="url(#paint0_linear_0_98)" stroke-linecap="round" stroke-linejoin="round"/>
<foreignObject x="6.99996" y="14.608" width="59.9132" height="51.7032"><div xmlns="http://www.w3.org/1999/xhtml" style="backdrop-filter:blur(7.5px);clip-path:url(#bgblur_1_0_98_clip_path);height:100%;width:100%"></div></foreignObject><g id="Fill 4" filter="url(#filter1_d_0_98)" data-figma-bg-blur-radius="15">
<path d="M32.9282 51.3111C32.1389 51.3151 31.3496 51.0308 30.7412 50.4462L22.9142 42.9186C21.7056 41.7494 21.6932 39.8515 22.8895 38.6743C24.0858 37.4931 26.0384 37.4811 27.2511 38.6462L32.883 44.0597L46.6337 30.502C47.8341 29.3208 49.7867 29.3087 50.9953 30.4739C52.208 31.6431 52.2203 33.5451 51.0241 34.7182L35.1028 50.4182C34.5026 51.0108 33.7175 51.3071 32.9282 51.3111Z" fill="url(#paint1_linear_0_98)"/>
<path d="M46.7041 30.5728C47.8659 29.4299 49.7564 29.4185 50.9257 30.5455C52.0617 31.6407 52.1077 33.3994 51.0586 34.5387L50.9541 34.6471L35.0322 50.3472C34.4517 50.9203 33.6922 51.2076 32.9277 51.2115C32.2106 51.2151 31.4944 50.9732 30.9228 50.4771L30.8105 50.3746L22.9834 42.8463C21.8153 41.7159 21.8041 39.8831 22.9599 38.7457C24.0813 37.6385 25.8902 37.5926 27.0693 38.6158L27.1816 38.7183L32.8134 44.1314L32.8838 44.1998L32.9531 44.1314L46.7041 30.5728Z" stroke="url(#paint2_linear_0_98)" stroke-opacity="0.5" stroke-width="0.2"/>
</g>
</g>
<defs>
<clipPath id="bgblur_0_0_98_clip_path" transform="translate(24 24)"><path d="M32.8506 0.963866C34.5604 0.354096 36.4622 0.347528 38.1973 0.93457L65.3008 10.0273H65.2998C68.5302 11.106 70.7252 14.0774 70.7432 17.4209L70.916 44.5371C70.9701 52.8815 67.928 60.9676 62.3564 67.3086H62.3555C59.9483 70.0472 56.9093 72.4135 53.1006 74.5312L52.3291 74.9512L37.7578 82.7334C37.2317 83.0175 36.6501 83.1624 36.0654 83.167H36.0615C35.48 83.167 34.895 83.0335 34.3643 82.7588L19.6592 75.1465C15.4455 72.9629 12.1301 70.5023 9.5332 67.6221C4.0506 61.546 0.922177 53.7977 0.686524 45.7217L0.672852 44.9395L0.500001 17.8437C0.478115 14.4959 2.63798 11.5033 5.84961 10.3779H5.85059L32.8506 0.963866Z"/>
</clipPath><filter id="filter1_d_0_98" x="6.99996" y="14.608" width="59.9132" height="51.7032" filterUnits="userSpaceOnUse" color-interpolation-filters="sRGB">
<feFlood flood-opacity="0" result="BackgroundImageFix"/>
<feColorMatrix in="SourceAlpha" type="matrix" values="0 0 0 0 0 0 0 0 0 0 0 0 0 0 0 0 0 0 127 0" result="hardAlpha"/>
<feOffset dx="5" dy="5"/>
<feGaussianBlur stdDeviation="5"/>
<feColorMatrix type="matrix" values="0 0 0 0 0.454902 0 0 0 0 0.870588 0 0 0 0 0.376471 0 0 0 0.5 0"/>
<feBlend mode="normal" in2="BackgroundImageFix" result="effect1_dropShadow_0_98"/>
<feBlend mode="normal" in="SourceGraphic" in2="effect1_dropShadow_0_98" result="shape"/>
</filter>
<clipPath id="bgblur_1_0_98_clip_path" transform="translate(-6.99996 -14.608)"><path d="M32.9282 51.3111C32.1389 51.3151 31.3496 51.0308 30.7412 50.4462L22.9142 42.9186C21.7056 41.7494 21.6932 39.8515 22.8895 38.6743C24.0858 37.4931 26.0384 37.4811 27.2511 38.6462L32.883 44.0597L46.6337 30.502C47.8341 29.3208 49.7867 29.3087 50.9953 30.4739C52.208 31.6431 52.2203 33.5451 51.0241 34.7182L35.1028 50.4182C34.5026 51.0108 33.7175 51.3071 32.9282 51.3111Z"/>
</clipPath><linearGradient id="paint0_linear_0_98" x1="12.05" y1="10.5143" x2="65.2708" y2="66.5422" gradientUnits="userSpaceOnUse">
<stop stop-color="white" stop-opacity="0.25"/>
<stop offset="1" stop-color="white" stop-opacity="0"/>
</linearGradient>
<linearGradient id="paint1_linear_0_98" x1="49.7923" y1="33.5271" x2="16.5037" y2="35.0231" gradientUnits="userSpaceOnUse">
<stop stop-color="white"/>
<stop offset="1" stop-color="white" stop-opacity="0.2"/>
</linearGradient>
<linearGradient id="paint2_linear_0_98" x1="25.2223" y1="36.8884" x2="50.622" y2="37.0816" gradientUnits="userSpaceOnUse">
<stop stop-color="white"/>
<stop offset="1" stop-color="white" stop-opacity="0"/>
</linearGradient>
</defs>
</svg>
