<svg preserveAspectRatio="none" width="100%" height="100%" overflow="visible" style="display: block;" viewBox="0 0 204.982 204.648" fill="none" xmlns="http://www.w3.org/2000/svg">
<g id="Icon">
<foreignObject x="-24" y="-24" width="252.982" height="252.648"><div xmlns="http://www.w3.org/1999/xhtml" style="backdrop-filter:blur(12px);clip-path:url(#bgblur_0_0_87_clip_path);height:100%;width:100%"></div></foreignObject><g id="Search" data-figma-bg-blur-radius="24">
<mask id="path-1-outside-1_0_87" maskUnits="userSpaceOnUse" x="-0.0476229" y="-0.0480167" width="206.084" height="205.084" fill="black">
<rect fill="white" x="-0.0476229" y="-0.0480167" width="206.084" height="205.084"/>
<path fill-rule="evenodd" clip-rule="evenodd" d="M1.00002 88.9435C1.02991 40.403 40.0127 1.02936 88.0705 1.00002C111.149 0.985929 133.276 10.2323 149.585 26.7049C165.893 43.1776 175.047 65.5273 175.033 88.8372C175.003 137.378 136.02 176.751 87.9623 176.781C39.9045 176.81 0.970128 137.484 1.00002 88.9435ZM173.703 159.603L199.606 180.492L200.056 180.492C205.296 185.785 205.291 194.371 200.044 199.67C194.798 204.969 186.297 204.974 181.057 199.682L159.565 175.063C157.533 173.018 156.392 170.239 156.394 167.339C156.395 164.44 157.54 161.66 159.575 159.612C163.498 155.718 169.784 155.714 173.703 159.603Z"/>
</mask>
<path fill-rule="evenodd" clip-rule="evenodd" d="M1.00002 88.9435C1.02991 40.403 40.0127 1.02936 88.0705 1.00002C111.149 0.985929 133.276 10.2323 149.585 26.7049C165.893 43.1776 175.047 65.5273 175.033 88.8372C175.003 137.378 136.02 176.751 87.9623 176.781C39.9045 176.81 0.970128 137.484 1.00002 88.9435ZM173.703 159.603L199.606 180.492L200.056 180.492C205.296 185.785 205.291 194.371 200.044 199.67C194.798 204.969 186.297 204.974 181.057 199.682L159.565 175.063C157.533 173.018 156.392 170.239 156.394 167.339C156.395 164.44 157.54 161.66 159.575 159.612C163.498 155.718 169.784 155.714 173.703 159.603Z" fill="var(--fill-0, #B62FFF)" fill-opacity="0.35"/>
<path d="M88.0705 1.00002L88.0707 1.62531e-05V1.62531e-05L88.0705 1.00002ZM1.00002 88.9435L1.73487e-05 88.9437L1.00002 88.9435ZM149.585 26.7049L148.874 27.4088V27.4088L149.585 26.7049ZM175.033 88.8372L176.033 88.837V88.837L175.033 88.8372ZM87.9623 176.781L87.9625 175.781V175.781L87.9623 176.781ZM199.606 180.492L198.978 181.271C199.156 181.414 199.377 181.492 199.606 181.492L199.606 180.492ZM173.703 159.603L172.998 160.313C173.022 160.337 173.048 160.36 173.074 160.382L173.703 159.603ZM200.056 180.492L200.767 179.788C200.579 179.599 200.323 179.492 200.056 179.492L200.056 180.492ZM200.044 199.67L199.334 198.967V198.967L200.044 199.67ZM181.057 199.682L180.303 200.34C180.317 200.355 180.331 200.371 180.346 200.386L181.057 199.682ZM159.565 175.063L160.319 174.405C160.304 174.389 160.29 174.373 160.275 174.358L159.565 175.063ZM156.394 167.339L155.394 167.34L156.394 167.339ZM159.575 159.612L158.87 158.902L158.865 158.907L159.575 159.612ZM88.0705 1.00002L88.0707 1.62531e-05C39.4514 0.0297 0.0302408 39.8605 1.73487e-05 88.9437L1.00002 88.9435L2.00002 88.9433C2.02957 40.9455 40.574 2.02901 88.0703 2.00002L88.0705 1.00002ZM149.585 26.7049L150.295 26.0011C133.8 9.33977 111.417 -0.014235 88.0707 1.62531e-05L88.0705 1.00002L88.0703 2.00002C110.88 1.98609 132.752 11.1248 148.874 27.4088L149.585 26.7049ZM175.033 88.8372L176.033 88.837C176.047 65.265 166.79 42.6621 150.295 26.0011L149.585 26.7049L148.874 27.4088C164.996 43.6932 174.047 65.7895 174.033 88.8374L175.033 88.8372ZM87.9623 176.781L87.9621 177.781C136.581 177.751 176.003 137.92 176.033 88.837L175.033 88.8372L174.033 88.8374C174.003 136.835 135.459 175.752 87.9625 175.781L87.9623 176.781ZM1.00002 88.9435L1.73487e-05 88.9437C-0.0302063 138.027 39.3424 177.81 87.9621 177.781L87.9623 176.781L87.9625 175.781C40.4665 175.81 1.97046 136.941 2.00002 88.9433L1.00002 88.9435ZM199.606 180.492L200.234 179.714L174.331 158.825L173.703 159.603L173.074 160.382L198.978 181.271L199.606 180.492ZM200.056 180.492L200.056 179.492L199.606 179.492L199.606 180.492L199.606 181.492L200.056 181.492L200.056 180.492ZM200.044 199.67L200.754 200.373C206.387 194.685 206.393 185.471 200.767 179.788L200.056 180.492L199.345 181.196C204.199 186.099 204.195 194.057 199.334 198.967L200.044 199.67ZM181.057 199.682L180.346 200.386C185.977 206.074 195.117 206.068 200.754 200.373L200.044 199.67L199.334 198.967C194.479 203.871 186.616 203.875 181.768 198.978L181.057 199.682ZM159.565 175.063L158.811 175.721L180.303 200.34L181.057 199.682L181.81 199.024L160.319 174.405L159.565 175.063ZM156.394 167.339L155.394 167.34C155.392 170.502 156.636 173.535 158.855 175.768L159.565 175.063L160.275 174.358C158.43 172.501 157.392 169.976 157.394 167.339L156.394 167.339ZM159.575 159.612L158.865 158.907C156.644 161.143 155.396 164.178 155.394 167.34L156.394 167.339L157.394 167.339C157.395 164.703 158.436 162.176 160.284 160.316L159.575 159.612ZM173.703 159.603L174.407 158.893C170.098 154.617 163.184 154.621 158.87 158.902L159.575 159.612L160.279 160.321C163.812 156.814 169.469 156.811 172.998 160.313L173.703 159.603Z" fill="url(#paint0_linear_0_87)" mask="url(#path-1-outside-1_0_87)"/>
</g>
</g>
<defs>
<clipPath id="bgblur_0_0_87_clip_path" transform="translate(24 24)"><path fill-rule="evenodd" clip-rule="evenodd" d="M1.00002 88.9435C1.02991 40.403 40.0127 1.02936 88.0705 1.00002C111.149 0.985929 133.276 10.2323 149.585 26.7049C165.893 43.1776 175.047 65.5273 175.033 88.8372C175.003 137.378 136.02 176.751 87.9623 176.781C39.9045 176.81 0.970128 137.484 1.00002 88.9435ZM173.703 159.603L199.606 180.492L200.056 180.492C205.296 185.785 205.291 194.371 200.044 199.67C194.798 204.969 186.297 204.974 181.057 199.682L159.565 175.063C157.533 173.018 156.392 170.239 156.394 167.339C156.395 164.44 157.54 161.66 159.575 159.612C163.498 155.718 169.784 155.714 173.703 159.603Z"/>
</clipPath><linearGradient id="paint0_linear_0_87" x1="33.3445" y1="24.6359" x2="203.539" y2="191.049" gradientUnits="userSpaceOnUse">
<stop stop-color="white" stop-opacity="0.25"/>
<stop offset="1" stop-color="white" stop-opacity="0"/>
</linearGradient>
</defs>
</svg>
