<svg preserveAspectRatio="none" width="100%" height="100%" overflow="visible" style="display: block;" viewBox="0 0 75.7428 78.9875" fill="none" xmlns="http://www.w3.org/2000/svg">
<g id="Bg">
<path id="Fill 1" d="M53.3683 65.8039C53.039 65.994 52.6663 66.109 52.2808 66.1276L39.8583 66.7274C36.3325 66.8961 33.2995 66.552 30.5827 65.6798C24.6381 63.7738 19.6496 59.8015 16.5396 54.4889L6.29656 37.0072C5.11398 34.9898 5.37908 32.4132 6.94898 30.5941L21.0137 14.3457C21.8438 13.372 23.0054 12.6944 24.2749 12.4386L45.326 8.1363C47.6806 7.65158 50.0585 8.68497 51.2369 10.7013L61.4874 28.196C64.5956 33.4993 65.623 39.7861 64.3831 45.8989C63.8138 48.703 62.6275 51.5141 60.7602 54.4937L54.1795 65.014C53.9764 65.3422 53.6961 65.6112 53.3683 65.8039" fill="url(#paint0_linear_0_135)"/>
<g id="Fill 2" filter="url(#filter0_f_0_135)">
<path d="M47.8749 55.3881C47.6516 55.517 47.4025 55.6014 47.1487 55.6272L38.9687 56.458C36.647 56.6929 34.6681 56.5947 32.9165 56.1606C29.0839 55.2124 25.956 52.9605 24.1115 49.8162L18.0363 39.4696C17.3348 38.2757 17.6049 36.6846 18.7036 35.5098L28.5449 25.0147C29.1262 24.3863 29.9143 23.9272 30.7575 23.7229L44.7416 20.2986C46.3059 19.9134 47.8289 20.459 48.5277 21.6525L54.6074 32.0067C56.451 35.1454 56.8915 38.9652 55.8496 42.7626C55.3713 44.5046 54.4875 46.2739 53.1503 48.172L48.437 54.8732C48.2914 55.0821 48.0974 55.2576 47.8749 55.3881" fill="var(--fill-0, #1EA51F)" fill-opacity="0.5"/>
</g>
</g>
<defs>
<filter id="filter0_f_0_135" x="1.64941" y="4.17639" width="70.7529" height="68.4057" filterUnits="userSpaceOnUse" color-interpolation-filters="sRGB">
<feFlood flood-opacity="0" result="BackgroundImageFix"/>
<feBlend mode="normal" in="SourceGraphic" in2="BackgroundImageFix" result="shape"/>
<feGaussianBlur stdDeviation="8" result="effect1_foregroundBlur_0_135"/>
</filter>
<linearGradient id="paint0_linear_0_135" x1="45.209" y1="0" x2="29.2501" y2="59.5331" gradientUnits="userSpaceOnUse">
<stop stop-color="#9BF763"/>
<stop offset="1" stop-color="#1EA51F"/>
</linearGradient>
</defs>
</svg>
