<svg preserveAspectRatio="none" width="100%" height="100%" overflow="visible" style="display: block;" viewBox="0 0 130.621 17.8594" fill="none" xmlns="http://www.w3.org/2000/svg">
<g id="SourceMate">
<path id="Vector" d="M130.621 12.2344H121.691C121.809 13.1953 122.137 13.9453 122.652 14.4844C123.191 15.0234 123.918 15.3047 124.832 15.3047C125.465 15.3047 125.98 15.1641 126.379 14.9062C126.754 14.625 127.035 14.25 127.199 13.8047H130.434C130.316 14.3438 130.105 14.8594 129.824 15.3516C129.519 15.8438 129.144 16.2656 128.652 16.6172C128.184 16.9922 127.621 17.2969 126.988 17.5078C126.355 17.7188 125.629 17.8359 124.855 17.8359C123.848 17.8359 122.934 17.6719 122.137 17.3203C121.34 16.9922 120.66 16.5234 120.121 15.9375C119.582 15.3516 119.184 14.6719 118.902 13.875C118.621 13.0547 118.48 12.2109 118.48 11.2969C118.48 10.3828 118.621 9.53906 118.926 8.74219C119.23 7.94531 119.629 7.26562 120.168 6.67969C120.707 6.11719 121.34 5.67188 122.09 5.32031C122.816 4.99219 123.637 4.82812 124.551 4.82812C125.535 4.82812 126.402 5.01562 127.152 5.36719C127.926 5.71875 128.559 6.23438 129.051 6.89062C129.566 7.54688 129.965 8.32031 130.223 9.23438C130.48 10.125 130.621 11.1328 130.621 12.2344ZM122.629 8.03906C122.184 8.53125 121.879 9.16406 121.738 9.98438H127.199C127.152 9.21094 126.894 8.55469 126.426 8.0625C125.957 7.57031 125.348 7.33594 124.598 7.33594C123.73 7.33594 123.074 7.57031 122.629 8.03906Z" fill="var(--fill-0, #1F1F1F)"/>
<path id="Vector_2" d="M116.037 17.4844H115.194C114.795 17.4844 114.397 17.4375 113.998 17.3672C113.6 17.2734 113.248 17.1094 112.92 16.8984C112.615 16.6641 112.358 16.3594 112.147 15.9844C111.936 15.5859 111.842 15.1172 111.842 14.5312V7.3125H110.154V5.15625H111.842V1.3125H115.029V5.15625H117.162V7.3125H115.029V13.8516C115.029 14.2969 115.147 14.625 115.381 14.8125C115.592 14.9766 115.897 15.0703 116.272 15.0703H116.881L117.233 15.0469V17.4375L116.037 17.4844Z" fill="var(--fill-0, #1F1F1F)"/>
<path id="Vector_3" d="M100.961 8.90625H98.0551C98.0785 8.36719 98.1957 7.85156 98.4301 7.35938C98.641 6.86719 98.9691 6.42188 99.4145 6.07031C99.8363 5.69531 100.375 5.39062 101.032 5.17969C101.688 4.96875 102.461 4.85156 103.375 4.85156C105.204 4.85156 106.516 5.25 107.336 6.02344C108.157 6.82031 108.555 7.94531 108.555 9.375V15.6328C108.555 16.5703 108.696 17.1328 108.977 17.3438V17.4609H105.836C105.743 17.3438 105.672 17.1562 105.602 16.8984C105.532 16.6406 105.485 16.3594 105.461 16.1016H105.414C105.25 16.3359 105.063 16.5469 104.875 16.7578C104.664 16.9688 104.43 17.1328 104.149 17.2734C103.868 17.4141 103.539 17.5312 103.141 17.625C102.766 17.7188 102.321 17.7656 101.782 17.7656C100.516 17.7656 99.4848 17.4375 98.6879 16.8047C97.891 16.1719 97.4926 15.2344 97.4926 13.9922C97.4926 13.3125 97.6098 12.75 97.8676 12.2812C98.1254 11.8125 98.477 11.4375 98.9223 11.1328C99.3676 10.8281 99.9066 10.5938 100.493 10.4297C101.102 10.2656 101.758 10.125 102.438 10.0312C103.446 9.89062 104.196 9.72656 104.688 9.5625C105.18 9.39844 105.414 9.09375 105.414 8.625C105.414 8.17969 105.25 7.82812 104.899 7.57031C104.547 7.3125 104.032 7.17188 103.352 7.17188C102.579 7.17188 101.993 7.3125 101.618 7.59375C101.219 7.875 101.008 8.32031 100.961 8.90625ZM101.172 15.1172C101.524 15.3516 101.993 15.4688 102.579 15.4688C103.024 15.4688 103.446 15.3984 103.821 15.2812C104.172 15.1406 104.477 14.9531 104.711 14.7422C104.969 14.5312 105.157 14.2734 105.297 13.9922C105.414 13.7109 105.485 13.4297 105.485 13.125V11.2734C105.18 11.4375 104.829 11.5781 104.43 11.6953C104.032 11.8125 103.61 11.9062 103.188 12C102.321 12.1875 101.688 12.3984 101.289 12.6562C100.868 12.9141 100.657 13.3359 100.657 13.9219C100.657 14.5078 100.821 14.9062 101.172 15.1172Z" fill="var(--fill-0, #1F1F1F)"/>
<path id="Vector_4" d="M78.5729 17.4609V0.304688H83.4479L85.8854 8.92969L86.3073 10.5469C86.4479 11.0859 86.5651 11.6016 86.6588 12.0469L86.9635 13.5469H87.0104L87.3151 12.0469C87.4088 11.6016 87.526 11.0859 87.6432 10.5469C87.7604 10.0078 87.901 9.46875 88.0651 8.92969L90.5026 0.304688H95.4479V17.4609H92.2135V7.61719C92.2135 7.26562 92.2135 6.89062 92.237 6.49219C92.237 6.09375 92.2604 5.69531 92.2838 5.32031C92.3073 4.89844 92.3307 4.47656 92.3541 4.07812H92.3073L92.0729 5.25C92.0026 5.60156 91.9088 5.95312 91.8151 6.30469L91.5807 7.33594L88.6276 17.4609H85.276L82.3932 7.33594C82.2995 7.03125 82.2057 6.67969 82.1354 6.30469C82.0651 5.95312 81.9713 5.60156 81.901 5.25L81.6666 4.07812H81.6198C81.6432 4.47656 81.6666 4.89844 81.6901 5.32031L81.737 6.49219C81.7604 6.89062 81.7604 7.26562 81.7604 7.61719V17.4609H78.5729Z" fill="var(--fill-0, #1F1F1F)"/>
<path id="Vector_5" d="M76.5516 12.2344H67.6219C67.7391 13.1953 68.0673 13.9453 68.5829 14.4844C69.1219 15.0234 69.8485 15.3047 70.7626 15.3047C71.3954 15.3047 71.911 15.1641 72.3094 14.9062C72.6844 14.625 72.9657 14.25 73.1298 13.8047H76.3641C76.2469 14.3438 76.036 14.8594 75.7548 15.3516C75.4501 15.8438 75.0751 16.2656 74.5829 16.6172C74.1141 16.9922 73.5516 17.2969 72.9188 17.5078C72.286 17.7188 71.5594 17.8359 70.786 17.8359C69.7782 17.8359 68.8641 17.6719 68.0673 17.3203C67.2704 16.9922 66.5907 16.5234 66.0516 15.9375C65.5126 15.3516 65.1141 14.6719 64.8329 13.875C64.5516 13.0547 64.411 12.2109 64.411 11.2969C64.411 10.3828 64.5516 9.53906 64.8563 8.74219C65.161 7.94531 65.5594 7.26562 66.0985 6.67969C66.6376 6.11719 67.2704 5.67188 68.0204 5.32031C68.7469 4.99219 69.5673 4.82812 70.4813 4.82812C71.4657 4.82812 72.3329 5.01562 73.0829 5.36719C73.8563 5.71875 74.4891 6.23438 74.9813 6.89062C75.4969 7.54688 75.8954 8.32031 76.1532 9.23438C76.411 10.125 76.5516 11.1328 76.5516 12.2344ZM68.5594 8.03906C68.1141 8.53125 67.8094 9.16406 67.6688 9.98438H73.1298C73.0829 9.21094 72.8251 8.55469 72.3563 8.0625C71.8876 7.57031 71.2782 7.33594 70.5282 7.33594C69.661 7.33594 69.0048 7.57031 68.5594 8.03906Z" fill="var(--fill-0, #1F1F1F)"/>
<path id="Vector_6" d="M63.2101 9.32812H60.0226C59.9054 8.78906 59.671 8.32031 59.2726 7.96875C58.8741 7.61719 58.382 7.42969 57.7726 7.42969C56.7882 7.42969 56.0382 7.78125 55.546 8.48438C55.0538 9.16406 54.796 10.125 54.796 11.3203C54.796 12.4922 55.0304 13.4297 55.4991 14.1328C55.9679 14.8594 56.7179 15.2109 57.7257 15.2109C58.4054 15.2109 58.9445 15.0469 59.3898 14.6953C59.8116 14.3438 60.0695 13.8281 60.1866 13.125H63.3507C63.2804 13.7812 63.1163 14.3906 62.8585 14.9531C62.5773 15.5391 62.2023 16.0312 61.7101 16.4531C61.2413 16.875 60.6788 17.2031 60.0226 17.4609C59.3429 17.7188 58.6163 17.8359 57.796 17.8359C56.8351 17.8359 55.9445 17.6719 55.171 17.3203C54.3976 16.9922 53.7179 16.5234 53.1788 15.9375C52.6398 15.3516 52.2413 14.6719 51.9366 13.875C51.632 13.0781 51.4913 12.2344 51.4913 11.3203C51.4913 10.4062 51.632 9.5625 51.9132 8.76562C52.2179 7.96875 52.6163 7.28906 53.1554 6.70312C53.6945 6.11719 54.3273 5.67188 55.0773 5.32031C55.8273 4.99219 56.671 4.82812 57.632 4.82812C58.4288 4.82812 59.1554 4.94531 59.7882 5.15625C60.421 5.36719 60.9835 5.67188 61.4523 6.07031C61.921 6.46875 62.296 6.9375 62.6007 7.5C62.9054 8.03906 63.0929 8.64844 63.2101 9.32812Z" fill="var(--fill-0, #1F1F1F)"/>
<path id="Vector_7" d="M46.7045 17.4609H43.4232V5.15625H46.5638V7.125H46.6576C47.0091 6.42188 47.431 5.88281 47.8998 5.53125C48.3451 5.17969 48.9545 5.01562 49.681 5.01562C50.0091 5.01562 50.267 5.03906 50.431 5.10938V7.96875H50.3607C49.306 7.85156 48.4154 8.08594 47.7357 8.64844C47.056 9.23438 46.7045 10.1719 46.7045 11.4609V17.4609Z" fill="var(--fill-0, #1F1F1F)"/>
<path id="Vector_8" d="M37.9332 17.4609V16.0312H37.8629C37.441 16.5938 36.9723 17.0391 36.4332 17.3438C35.8941 17.6484 35.191 17.8125 34.3238 17.8125C32.941 17.8125 31.8863 17.4141 31.1598 16.5938C30.4332 15.7969 30.0582 14.7188 30.0582 13.3594V5.15625H33.2926V12.8203C33.2926 13.5469 33.4566 14.0859 33.7848 14.4609C34.1129 14.8594 34.6285 15.0469 35.3316 15.0469C36.1051 15.0469 36.7144 14.7891 37.1598 14.2734C37.6051 13.7344 37.816 13.0781 37.816 12.2578V5.15625H41.0738V17.4609H37.9332Z" fill="var(--fill-0, #1F1F1F)"/>
<path id="Vector_9" d="M19.3651 17.3203C18.5682 16.9922 17.8885 16.5234 17.326 15.9375C16.7635 15.3516 16.3182 14.6719 16.0135 13.875C15.7088 13.0781 15.5448 12.2344 15.5448 11.3203C15.5448 10.4062 15.7088 9.5625 16.0135 8.76562C16.3182 7.96875 16.7635 7.28906 17.326 6.70312C17.8885 6.11719 18.5682 5.67188 19.3651 5.32031C20.1385 4.99219 21.0057 4.82812 21.9666 4.82812C22.9276 4.82812 23.8182 4.99219 24.5916 5.32031C25.3651 5.67188 26.0448 6.11719 26.6073 6.70312C27.1932 7.28906 27.6385 7.96875 27.9432 8.76562C28.2479 9.5625 28.4119 10.4062 28.4119 11.3203C28.4119 12.2344 28.2479 13.0781 27.9432 13.875C27.6385 14.6719 27.1932 15.3516 26.6073 15.9375C26.0448 16.5234 25.3651 16.9922 24.5916 17.3203C23.8182 17.6719 22.9276 17.8359 21.9666 17.8359C21.0057 17.8359 20.1385 17.6719 19.3651 17.3203ZM21.9666 15.3281C22.9744 15.3281 23.7479 14.9531 24.2869 14.2266C24.826 13.5 25.0838 12.5156 25.0838 11.3203C25.0838 10.125 24.826 9.14062 24.2869 8.41406C23.7479 7.66406 22.9744 7.28906 21.9666 7.28906C20.9588 7.28906 20.1854 7.66406 19.6463 8.41406C19.1073 9.14062 18.8494 10.125 18.8494 11.3203C18.8494 12.5156 19.1073 13.5 19.6463 14.2266C20.1854 14.9531 20.9588 15.3281 21.9666 15.3281Z" fill="var(--fill-0, #1F1F1F)"/>
<path id="Vector_10" d="M13.6641 5.34375H10.336C10.2423 4.47656 9.8907 3.84375 9.28133 3.39844C8.67195 2.97656 7.92195 2.76562 7.03133 2.76562C6.07039 2.76562 5.32039 2.95312 4.78133 3.30469C4.21883 3.67969 3.93758 4.17188 3.93758 4.78125C3.93758 5.13281 4.00789 5.41406 4.14851 5.64844C4.31258 5.88281 4.54695 6.09375 4.85164 6.25781C5.15633 6.42188 5.55476 6.58594 6.02351 6.70312C6.49226 6.84375 7.03133 6.98438 7.66414 7.125C8.55476 7.3125 9.37508 7.52344 10.1485 7.75781C10.922 7.99219 11.6251 8.29688 12.211 8.67188C12.797 9.07031 13.2423 9.5625 13.5704 10.1484C13.922 10.7344 14.086 11.5078 14.086 12.4219C14.086 13.2891 13.922 14.0625 13.5704 14.7422C13.2423 15.4219 12.7735 16.0078 12.1876 16.4531C11.6016 16.8984 10.8985 17.25 10.0782 17.4844C9.25789 17.7422 8.36726 17.8594 7.40633 17.8594C5.08601 17.8594 3.28133 17.3672 1.99226 16.3828C0.726639 15.3984 0.0703888 13.9922 7.62939e-05 12.1641H3.39851C3.5157 13.2188 3.8907 13.9453 4.50008 14.3906C5.10945 14.8359 6.02351 15.0469 7.2657 15.0469C7.71101 15.0469 8.13289 15 8.53133 14.9297C8.92976 14.8594 9.28133 14.7188 9.58601 14.5312C9.8907 14.3672 10.1485 14.1328 10.336 13.8516C10.5001 13.5703 10.5938 13.2422 10.5938 12.8438C10.5938 12.4219 10.5001 12.0703 10.3126 11.8125C10.1016 11.5312 9.82039 11.2969 9.44539 11.1094C9.09383 10.9453 8.64851 10.7812 8.10945 10.6406C7.59383 10.5 7.00789 10.3594 6.35164 10.2188C5.5782 10.0547 4.85164 9.84375 4.12508 9.63281C3.42195 9.42188 2.81258 9.11719 2.27351 8.76562C1.73445 8.39062 1.28914 7.92188 0.961014 7.33594C0.632889 6.75 0.468826 6.02344 0.468826 5.13281C0.468826 4.28906 0.632889 3.53906 0.961014 2.90625C1.28914 2.27344 1.75789 1.73438 2.34383 1.28906C2.92976 0.84375 3.60945 0.539062 4.40633 0.328125C5.2032 0.117188 6.09383 0 7.05476 0C9.00008 0 10.547 0.445312 11.7188 1.35938C12.8907 2.27344 13.547 3.60938 13.6641 5.34375Z" fill="var(--fill-0, #1F1F1F)"/>
</g>
</svg>
